<?xml version="1.0" encoding="utf-8"?>
<svg viewBox="0 0 124 32" xmlns="http://www.w3.org/2000/svg" xmlns:bx="https://boxy-svg.com">
  <defs>
    <bx:grid x="81.469" y="-0.588" width="100" height="100"/>
    <bx:guide x="15.864" y="-0.143" angle="0"/>
    <bx:guide x="108.171" y="-3.804" angle="0"/>
  </defs>
  <rect width="122" height="30" style="fill: none; fill-opacity: 0; paint-order: fill; stroke: rgb(53, 53, 53); stroke-width: 1.5px;" rx="16" ry="16" y="1" x="1"/>
  <text style="fill: rgb(236, 163, 62); fill-opacity: 0.9; font-family: Arial, sans-serif; font-size: 14.2966px; font-weight: 700; paint-order: fill; stroke-linejoin: round; stroke-width: 0px; text-transform: uppercase; white-space: pre;" transform="matrix(1.119144, 0, 0, 1.119144, -12.91471, 8.4146)" bx:origin="-0.582505 -0.411739"><tspan x="44.985" y="12.04">DISCUSS</tspan><tspan x="44.985" dy="1em">​</tspan></text>
  <g style="" transform="matrix(0.066197, 0, 0, 0.066197, 14.057938, 5.098675)" bx:origin="-0.888884 -0.247551">
    <title>logo</title>
    <g style="">
      <title>left</title>
      <path style="stroke: rgb(0, 0, 0); stroke-width: 0px; fill: rgb(53, 53, 53);" d="M 44.639 134.134 C 42.467 134.031 165.727 11.73 165.95 11.507 C 182.703 -5.246 205.95 19.385 192.156 33.179 L 70.453 155.817 C 59.436 167.513 62.554 189.2 69.584 197.828 L 122.377 251.48 C 133.023 262.126 129.251 273.583 120.772 278.775 C 114.739 282.47 105.826 283.298 100.482 277.511 L 47.381 225.057 C 22.724 199.539 24.839 155.541 44.639 134.134 Z"/>
    </g>
    <g>
      <title>top</title>
      <path style="stroke: rgb(0, 0, 0); paint-order: stroke; vector-effect: non-scaling-stroke; stroke-width: 0px; fill: rgb(248, 160, 20);" d="M 120.978 104.891 C 144.857 88.84 161.502 97.479 173.741 110.401 C 183.111 120.294 192.017 128.575 198.479 135.058 C 210.854 147.474 239.133 128.697 220.347 109.647 C 205.673 94.766 194.177 82.851 191.219 80.126 C 180.99 71.534 173.101 65.931 161.308 64.277 L 120.978 104.891 Z"/>
    </g>
    <g>
      <title>middle</title>
      <rect x="118.634" y="161.048" width="152.407" height="33.341" style="fill: rgb(216, 216, 216);" rx="16.67" ry="16.67"/>
    </g>
    <g>
      <title>bottom</title>
      <path style="stroke: rgb(0, 0, 0); stroke-width: 0px; fill: rgb(248, 160, 20);" d="M 102.83 279.509 C 121.376 287.434 138.607 267.467 122.078 251.198 C 149.681 268.886 166.748 251.828 179.349 239.092 C 188.12 230.228 195.089 222.284 200.664 218.004 C 213.126 208.435 235.827 227.044 223.231 242.151 C 209.715 258.361 192.46 274.34 186.362 278.748 C 163.999 294.91 135.519 300.777 102.83 279.509 Z"/>
    </g>
  </g>
</svg>