<svg xmlns="http://www.w3.org/2000/svg" width="300" height="150"><rect fill="#ECEFF1" width="275" height="125" x="12.5" y="12.5" rx="62.4" ry="62.4"/><path d="m93.589 97.666-7.084-16.683H63.7l-7.005 16.683H50L72.495 45h5.565l22.378 52.666h-6.85zm-9.146-22.172-6.616-16.251q-1.285-3.086-2.647-7.57-.856 3.444-2.452 7.57l-6.694 16.251h18.409zm42.297-17.866q2.841 0 5.098.43l-.895 5.526q-2.646-.538-4.67-.538-5.176 0-8.854 3.874-3.678 3.875-3.678 9.65v21.096h-6.46v-39.32h5.332l.74 7.283h.31q2.374-3.84 5.721-5.92t7.356-2.08zm32.535 0q2.841 0 5.098.43l-.895 5.526q-2.646-.538-4.67-.538-5.176 0-8.854 3.874-3.678 3.875-3.678 9.65v21.096h-6.46v-39.32h5.332l.739 7.283h.311q2.374-3.84 5.721-5.92t7.356-2.08zm39.307 40.038-1.285-5.597h-.311q-3.191 3.695-6.363 5.005-3.172 1.31-7.92 1.31-6.344 0-9.944-3.014-3.6-3.014-3.6-8.575 0-11.91 20.666-12.484l7.239-.216v-2.44q0-4.627-2.16-6.834-2.16-2.206-6.908-2.206-5.332 0-12.065 3.014l-1.985-4.557q3.153-1.578 6.908-2.475 3.756-.897 7.531-.897 7.628 0 11.306 3.121 3.678 3.121 3.678 10.01v26.835h-4.787zm-14.595-4.198q6.033 0 9.477-3.05 3.444-3.049 3.444-8.538v-3.55l-6.46.25q-7.706.252-11.111 2.207-3.406 1.955-3.406 6.081 0 3.229 2.121 4.915t5.935 1.686zm25.922-35.122h6.928l9.34 22.422q3.075 7.678 3.814 11.086h.312q.505-1.83 2.12-6.26 1.616-4.431 10.567-27.248h6.927l-18.33 44.773q-2.724 6.637-6.363 9.417-3.64 2.78-8.932 2.78-2.958 0-5.838-.61v-4.77q2.14.43 4.787.43 6.655 0 9.496-6.888l2.374-5.597-17.202-39.535z" fill="#37474F"/></svg>