<svg width="500" height="145" xmlns="http://www.w3.org/2000/svg">

 <g>
  <title>Layer 1</title>
  <rect id="svg_1" fill=" rgb(236, 239, 241)" ry="62.4" rx="62.4" height="125" width="482.681" y="10" x="10"/>
  <path id="svg_2" fill=" rgb(55, 71, 79)" d="m97.02199,100.53974l-6.61612,0l0,-24.6826l-29.96714,0l0,24.6826l-6.61613,0l0,-52.4505l6.61613,0l0,22.31478l29.96714,0l0,-22.31478l6.61612,0l0,52.4505zm40.85711,0l-1.2843,-5.59663l-0.31135,0q-3.19131,3.69521 -6.36316,5.00468q-3.17185,1.30947 -7.91989,1.30947q-6.3437,0 -9.94364,-3.01357q-3.59995,-3.01357 -3.59995,-8.57433q0,-11.91079 20.66566,-12.4848l7.23881,-0.21526l0,-2.43956q0,-4.62798 -2.15997,-6.83434q-2.15997,-2.20637 -6.90801,-2.20637q-5.33182,0 -12.0647,3.01357l-1.98484,-4.55623q3.15239,-1.57854 6.90801,-2.47543q3.75563,-0.8969 7.53071,-0.8969q7.628,0 11.30578,3.12119q3.67779,3.1212 3.67779,10.00937l0,26.83514l-4.78697,0zm-14.59439,-4.19748q6.03235,0 9.47663,-3.04944q3.44428,-3.04945 3.44428,-8.53845l0,-3.55171l-6.46046,0.25113q-7.70583,0.25112 -11.11119,2.20636q-3.40535,1.95523 -3.40535,6.08096q0,3.22883 2.12105,4.91499q2.12105,1.68616 5.93504,1.68616zm60.20909,-6.52941q0,5.48901 -4.43669,8.4667q-4.4367,2.9777 -12.45388,2.9777q-8.48421,0 -13.23224,-2.47544l0,-5.52487q3.07454,1.43503 6.59666,2.26017q3.52211,0.82515 6.79126,0.82515q5.05939,0 7.78368,-1.48885q2.72429,-1.48884 2.72429,-4.53829q0,-2.29605 -2.15997,-3.92841q-2.15997,-1.63235 -8.42583,-3.85666q-5.95451,-2.04492 -8.46475,-3.56965q-2.51023,-1.52473 -3.73616,-3.46202q-1.22593,-1.9373 -1.22593,-4.62798q0,-4.80736 4.2421,-7.58774q4.2421,-2.78037 11.6366,-2.78037q6.88855,0 13.46576,2.58306l-2.29619,4.84323q-6.42153,-2.43955 -11.63659,-2.43955q-4.59237,0 -6.92748,1.32741q-2.3351,1.32741 -2.3351,3.65934q0,1.57854 0.87566,2.69069q0.87566,1.11216 2.82158,2.11668q1.94591,1.00452 7.47233,2.90595q7.58908,2.54718 10.25499,5.13024q2.6659,2.58306 2.6659,6.49353zm39.69185,10.72688l0,-25.43599q0,-4.80736 -2.37402,-7.17517q-2.37401,-2.3678 -7.43341,-2.3678q-6.73288,0 -9.82688,3.37233q-3.09401,3.37234 -3.09401,11.04977l0,20.55687l-6.46045,0l0,-55.82283l6.46045,0l0,16.89752q0,3.04944 -0.31135,5.05849l0.38918,0q1.90701,-2.83419 5.42912,-4.46654q3.5221,-1.63235 8.03664,-1.63235q7.82259,0 11.73389,3.42614q3.9113,3.42615 3.9113,10.88833l0,25.65123l-6.46045,0zm58.92468,0l-6.61612,0l0,-47.03325l-18.01921,0l0,-5.41725l42.65454,0l0,5.41725l-18.01921,0l0,47.03325zm51.83144,0l-1.28431,-5.59663l-0.31135,0q-3.19131,3.69521 -6.36314,5.00468q-3.17185,1.30947 -7.9199,1.30947q-6.3437,0 -9.94364,-3.01357q-3.59995,-3.01357 -3.59995,-8.57433q0,-11.91079 20.66566,-12.4848l7.23882,-0.21526l0,-2.43956q0,-4.62798 -2.15997,-6.83434q-2.15998,-2.20637 -6.90802,-2.20637q-5.33182,0 -12.0647,3.01357l-1.98483,-4.55623q3.15239,-1.57854 6.90801,-2.47543q3.75563,-0.8969 7.5307,-0.8969q7.62801,0 11.30579,3.12119q3.67778,3.1212 3.67778,10.00937l0,26.83514l-4.78696,0zm-14.59439,-4.19748q6.03235,0 9.47663,-3.04944q3.44427,-3.04945 3.44427,-8.53845l0,-3.55171l-6.46045,0.25113q-7.70584,0.25112 -11.11119,2.20636q-3.40536,1.95523 -3.40536,6.08096q0,3.22883 2.12105,4.91499q2.12105,1.68616 5.93506,1.68616zm52.54217,-35.76823q8.40637,0 13.05712,5.29169q4.65074,5.29169 4.65074,14.97817q0,9.68648 -4.68966,15.04992q-4.68966,5.36344 -13.0182,5.36344q-4.16426,0 -7.60854,-1.41709q-3.44428,-1.4171 -5.77938,-4.35892l-0.46703,0l-1.36213,5.0585l-4.63129,0l0,-55.82283l6.46045,0l0,13.56107q0,4.55623 -0.31135,8.1797l0.31135,0q4.51452,-5.88364 13.38791,-5.88364zm-0.93403,4.98674q-6.61613,0 -9.535,3.4979q-2.91888,3.49789 -2.91888,11.78522q0,8.28732 2.99671,11.85697q2.99672,3.56965 9.61284,3.56965q5.95451,0 8.87339,-4.00016q2.91888,-4.00017 2.91888,-11.49822q0,-7.67743 -2.91888,-11.44439q-2.91888,-3.76697 -9.02906,-3.76697zm36.38507,34.97896l-6.46045,0l0,-55.82283l6.46045,0l0,55.82283zm31.72149,0.71752q-9.45716,0 -14.9252,-5.30962q-5.46803,-5.30962 -5.46803,-14.74498q0,-9.5071 5.07884,-15.10373q5.07884,-5.59663 13.64089,-5.59663q8.01719,0 12.68739,4.86117q4.6702,4.86118 4.6702,12.82563l0,3.76696l-29.38337,0q0.19459,6.92404 3.79453,10.51163q3.59995,3.58759 10.13824,3.58759q6.88855,0 13.62143,-2.65481l0,5.30962q-3.42482,1.36328 -6.47991,1.95523q-3.0551,0.59195 -7.37503,0.59195zm-1.75133,-35.76823q-5.13722,0 -8.19232,3.08532q-3.05509,3.08533 -3.59995,8.53845l22.30023,0q0,-5.63251 -2.72429,-8.62814q-2.72429,-2.99563 -7.78368,-2.99563z"/>
 </g>
</svg>