<svg xmlns="http://www.w3.org/2000/svg" xmlns:xlink="http://www.w3.org/1999/xlink" viewBox="0 0 86 16"><g transform="matrix(.155556 0 0 .155556 .22222 .22222)"><rect y="5" width="90" height="90" rx="22.5" x="5" fill="#ff5721"/><path d="M56.862 19.563C85.436 38.63 76.17 59.585 76.17 59.585s8.115 8.983 4.854 16.852c0 0-3.367-5.496-8.958-5.496-5.402 0-8.599 5.496-19.507 5.496-24.262 0-35.762-19.883-35.762-19.883 21.862 14.138 36.802 4.121 36.802 4.121-9.873-5.6-30.81-32.407-30.81-32.407 18.253 15.237 26.13 19.24 26.13 19.24-4.738-3.802-17.936-22.437-17.936-22.437 10.562 10.477 31.556 25.086 31.556 25.086 6.023-16.145-5.677-30.594-5.677-30.594z" fill="#fff"/></g><g transform="matrix(1.137045 0 0 1.137045 -48.586613 -25.176727)"><path d="M60.606 33.575c-.529 0-.97-.095-1.323-.285a1.91 1.91 0 0 1-.804-.879c-.177-.395-.279-.896-.307-1.503l1.503-.254a4.82 4.82 0 0 0 .105.889c.064.233.156.41.276.53a.68.68 0 0 0 .465.169c.226 0 .378-.071.455-.212.085-.141.127-.303.127-.487 0-.359-.088-.659-.264-.899-.17-.247-.395-.494-.678-.731l-.889-.773c-.317-.268-.578-.571-.783-.91-.197-.338-.296-.755-.296-1.249 0-.705.205-1.245.614-1.619.416-.381.984-.571 1.704-.571.43 0 .783.07 1.058.211s.487.332.635.572c.155.233.261.49.317.772a4.71 4.71 0 0 1 .117.826l-1.492.222a5.76 5.76 0 0 0-.074-.688c-.029-.197-.092-.353-.191-.465-.092-.113-.233-.17-.423-.17a.5.5 0 0 0-.455.233c-.099.148-.149.314-.149.497 0 .304.068.554.202.752.141.19.331.391.571.603l.868.762c.36.311.667.667.921 1.069.261.395.391.886.391 1.471a2.18 2.18 0 0 1-.275 1.09c-.183.325-.441.579-.773.762-.324.184-.709.275-1.153.275zm3.639-.116l-.921-6.117h1.334l.487 3.693.55-3.693h1.164l.498 3.757.55-3.757h1.249l-.942 6.117h-1.365l-.593-3.63-.646 3.63zm5.722 0v-6.117h1.599v6.117zm-.01-7.123V25.14h1.609v1.196zm2.961 7.123v-5.027h-.614v-1.09h.614v-.424a3.8 3.8 0 0 1 .106-.952 1.08 1.08 0 0 1 .455-.624c.226-.149.572-.223 1.037-.223l.392.011.423.042v1.186a1.21 1.21 0 0 0-.19-.032c-.064-.014-.127-.021-.191-.021-.148 0-.257.046-.328.137-.07.085-.106.222-.106.413v.487h.815v1.09h-.815v5.027zm4.895.063c-.423 0-.755-.063-.995-.19a1.06 1.06 0 0 1-.497-.572c-.092-.246-.138-.546-.138-.899V28.39h-.603v-1.048h.603V25.49h1.619v1.852h.889v1.048h-.889v3.323c0 .19.046.328.138.412.099.078.233.117.402.117l.244-.011.211-.031v1.248l-.423.043a4.93 4.93 0 0 1-.561.031zm6.771.053q-.794 0-1.323-.286-.529-.296-.804-.878-.265-.593-.307-1.503l1.503-.254q.021.529.106.889.095.349.275.529.191.169.466.169.339 0 .455-.212.127-.212.127-.487 0-.54-.265-.9-.254-.37-.677-.741l-.889-.773q-.476-.402-.783-.91-.296-.508-.296-1.249 0-1.058.614-1.619.624-.571 1.704-.571.646 0 1.058.212.413.212.635.571.233.349.317.773.095.413.116.825l-1.492.222q-.021-.392-.074-.688-.042-.296-.19-.466-.138-.169-.423-.169-.307 0-.455.233-.148.222-.148.497 0 .455.201.751.212.286.571.603l.868.762q.54.466.921 1.069.392.593.392 1.471 0 .603-.275 1.09-.275.487-.773.762-.487.275-1.154.275z"/><use xlink:href="#B"/><path d="M92.675 33.459v-8.572h1.598v8.572zm3.754.106q-.37 0-.624-.19-.243-.191-.36-.508-.116-.317-.116-.698v-4.826h1.598v4.593q0 .254.085.392.085.127.307.127.127 0 .265-.063.148-.074.296-.169v-4.879h1.598v6.117H97.88v-.571q-.317.307-.688.497-.36.18-.762.18zm5.982-.043q-.635 0-.995-.19-.36-.201-.497-.571-.138-.37-.138-.9V28.39h-.603v-1.048h.603V25.49h1.619v1.852h.889v1.048h-.889v3.323q0 .286.138.413.148.116.402.116.127 0 .243-.011.116-.021.212-.032v1.249q-.148.021-.423.042-.275.032-.561.032zm1.828-.063v-6.117h1.598v6.117zm-.011-7.123V25.14h1.609v1.196z"/><use xlink:href="#B" x="19.327"/><path d="M111.928 33.459v-6.117h1.598v.614q.328-.328.688-.519.37-.201.783-.201.381 0 .614.19.243.191.36.508.116.307.116.698v4.826H114.5v-4.561q0-.254-.085-.381-.074-.127-.296-.127-.127 0-.286.074-.148.064-.307.18v4.815z"/></g><defs ><path id="B" d="M89.556 33.565q-.656 0-1.122-.233-.466-.243-.709-.698-.233-.455-.233-1.132V29.3q0-.677.233-1.132.243-.455.709-.688.466-.243 1.122-.243.656 0 1.122.243.466.233.709.688.243.455.243 1.132v2.201q0 .677-.243 1.132-.243.455-.709.698-.466.233-1.122.233zm.011-1.079q.201 0 .307-.106.106-.116.138-.307.032-.201.032-.455v-2.424q0-.265-.032-.455-.032-.19-.138-.307-.106-.116-.307-.116-.201 0-.307.116-.106.116-.148.307-.032.191-.032.455v2.424q0 .254.032.455.042.19.148.307.106.106.307.106z"/></defs></svg>